<svg id="mobile_top_bg" xmlns="http://www.w3.org/2000/svg" width="390" height="48" viewBox="0 0 390 48">
  <rect id="top_bg" width="390" height="48" fill="#f3f3f3"/>
  <g id="그룹_6" data-name="그룹 6">
    <path id="패스_17" data-name="패스 17" d="M103.654,0,64.391,36H62.821L49.733,48H0V0Zm7.853,0-7.329,6.72h-2.094l-24.6,22.56H76.432L56.015,48H54.968l52.35-48Zm4.188,0L99.989,14.4h-.524L72.244,39.36H71.2L114.124,0Zm10.47,0L107.318,17.28h-.524L125.641,0Z" fill="#fff" fill-rule="evenodd"/>
    <path id="패스_16" data-name="패스 16" d="M10.264,0h5.56L0,17.76V11.52ZM31.221,0,22.24,10.08H20.957L0,33.6V29.76L26.944,0Zm6.415,0L3.849,37.92H2.994L0,41.28V39.36L35.07,0Zm6.843,0L.855,48H0v-.96L41.913,0ZM77.839,0,35.07,48H31.649L74.417,0ZM41.485,29.28,67.574,0h.855L42.341,29.28Z" fill="#f3f3f3" fill-rule="evenodd"/>
  </g>
</svg>
